<?xml version="1.0" encoding="UTF-8" standalone="no"?>
<svg
   xmlns:dc="http://purl.org/dc/elements/1.1/"
   xmlns:cc="http://creativecommons.org/ns#"
   xmlns:rdf="http://www.w3.org/1999/02/22-rdf-syntax-ns#"
   xmlns:svg="http://www.w3.org/2000/svg"
   xmlns="http://www.w3.org/2000/svg"
   xmlns:xlink="http://www.w3.org/1999/xlink"
   xmlns:sodipodi="http://sodipodi.sourceforge.net/DTD/sodipodi-0.dtd"
   xmlns:inkscape="http://www.inkscape.org/namespaces/inkscape"
   width="400"
   height="18"
   viewBox="0 0 105.83333 4.7624998"
   version="1.1"
   id="svg2113"
   sodipodi:docname="line-palette0.svg"
   inkscape:version="1.0beta2 (6c3896b, 2020-02-20)">
  <style
     id="style1568"></style>
  <defs
     id="defs2107">
    <linearGradient
       id="SVGID_1_"
       gradientUnits="userSpaceOnUse"
       x1="4.4362998"
       y1="14"
       x2="391.98761"
       y2="14">
      <stop
         offset="0"
         style="stop-color:#59994F"
         id="stop940" />
      <stop
         offset="1"
         style="stop-color:#C6F893"
         id="stop942" />
    </linearGradient>
    <linearGradient
       gradientUnits="userSpaceOnUse"
       y2="14"
       x2="392"
       y1="14"
       x1="4.4372268"
       id="linearGradient1566"
       xlink:href="#SVGID_1_"
       inkscape:collect="always" />
  </defs>
  <sodipodi:namedview
     units="px"
     id="base"
     pagecolor="#ffffff"
     bordercolor="#666666"
     borderopacity="1.0"
     inkscape:pageopacity="0.0"
     inkscape:pageshadow="2"
     inkscape:zoom="4"
     inkscape:cx="173.16879"
     inkscape:cy="-51.621934"
     inkscape:document-units="mm"
     inkscape:current-layer="layer1"
     inkscape:document-rotation="0"
     showgrid="false"
     fit-margin-top="0"
     fit-margin-left="0"
     fit-margin-right="0"
     fit-margin-bottom="0"
     inkscape:pagecheckerboard="true"
     inkscape:window-width="2501"
     inkscape:window-height="1489"
     inkscape:window-x="778"
     inkscape:window-y="232"
     inkscape:window-maximized="0" />
  <metadata
     id="metadata2110">
    <rdf:RDF>
      <cc:Work
         rdf:about="">
        <dc:format>image/svg+xml</dc:format>
        <dc:type
           rdf:resource="http://purl.org/dc/dcmitype/StillImage" />
        <dc:title></dc:title>
      </cc:Work>
    </rdf:RDF>
  </metadata>
  <g
     style="display:inline"
     inkscape:label="Calque 1"
     inkscape:groupmode="layer"
     id="layer1"
     transform="translate(-40.539986,-115.57748)">
    <g
       style="display:inline;fill:url(#linearGradient1566);fill-opacity:1"
       transform="matrix(0.26458333,0,0,0.26458333,41.085658,114.35434)"
       id="g947">
      <linearGradient
         style="fill:url(#linearGradient1566);fill-opacity:1"
         id="linearGradient1532"
         gradientUnits="userSpaceOnUse"
         x1="4.4362998"
         y1="14"
         x2="391.98761"
         y2="14">
        <stop
           offset="0"
           style="stop-color:#59994F;fill-opacity:1;fill:url(#linearGradient1566)"
           id="stop1528" />
        <stop
           offset="1"
           style="stop-color:#C6F893;fill-opacity:1;fill:url(#linearGradient1566)"
           id="stop1530" />
      </linearGradient>
      <path
         style="fill:url(#linearGradient1566);fill-opacity:1"
         class="st0"
         d="m 213,21 c -14,0 -28,0 -42,0 -11.6,-0.6 -23.2,-1.3 -34.9,-1.9 -26,-1.4 -51.9,2.5 -77.9,0.4 C 43,18.2 27.7,21 12.4,20.2 9.3,20 6.6,19.6 5.5,16.5 4.2,13.2 3.5,9.7 7,7 c 14,0 28,0 42,0 7,0.5 13.9,1.1 20.9,1.6 16.8,1.1 33.6,-1 50.4,-0.8 24.6,0.2 49.1,3.1 73.8,3 22.3,-0.1 44.6,-2.1 66.9,-2.7 34.4,-0.9 68.9,1.9 103.4,0.9 9.1,-0.2 18.2,-0.3 27.4,2.8 -3.9,2.2 -7.9,-0.8 -12.3,0.8 4.2,2.6 8.5,0.6 12.5,2.6 -2.5,1.2 -4.5,0.8 -6.5,0.7 -10.8,-0.7 -21.6,-0.9 -32.4,0.1 -7.6,0.7 -15.2,1.7 -22.9,1.8 -29.6,0.6 -59.3,-1.3 -88.9,1.5 -9.4,0.8 -18.9,0 -28.3,1.7 z"
         id="path945"
         inkscape:connector-curvature="0" />
    </g>
  </g>
</svg>
