<?xml version="1.0" encoding="utf-8"?>
<!-- Generator: Adobe Illustrator 21.0.0, SVG Export Plug-In . SVG Version: 6.00 Build 0)  -->
<svg version="1.1" id="Layer_1" xmlns="http://www.w3.org/2000/svg" xmlns:xlink="http://www.w3.org/1999/xlink" x="0px" y="0px"
	 viewBox="0 0 400 25" style="enable-background:new 0 0 400 25;" xml:space="preserve">
<style type="text/css">
	.st0{fill:url(#SVGID_1_);}
</style>
<g>
	<linearGradient id="SVGID_1_" gradientUnits="userSpaceOnUse" x1="4.4363" y1="14" x2="391.9876" y2="14">
		<stop  offset="0" style="stop-color:#59994F"/>
		<stop  offset="1" style="stop-color:#C6F893"/>
	</linearGradient>
	<path class="st0" d="M213,21c-14,0-28,0-42,0c-11.6-0.6-23.2-1.3-34.9-1.9c-26-1.4-51.9,2.5-77.9,0.4C43,18.2,27.7,21,12.4,20.2
		c-3.1-0.2-5.8-0.6-6.9-3.7C4.2,13.2,3.5,9.7,7,7c14,0,28,0,42,0c7,0.5,13.9,1.1,20.9,1.6c16.8,1.1,33.6-1,50.4-0.8
		c24.6,0.2,49.1,3.1,73.8,3c22.3-0.1,44.6-2.1,66.9-2.7C295.4,7.2,329.9,10,364.4,9c9.1-0.2,18.2-0.3,27.4,2.8
		c-3.9,2.2-7.9-0.8-12.3,0.8c4.2,2.6,8.5,0.6,12.5,2.6c-2.5,1.2-4.5,0.8-6.5,0.7c-10.8-0.7-21.6-0.9-32.4,0.1
		c-7.6,0.7-15.2,1.7-22.9,1.8c-29.6,0.6-59.3-1.3-88.9,1.5C231.9,20.1,222.4,19.3,213,21z"/>
</g>
</svg>
